<svg width="33" height="32" viewBox="0 0 33 32" fill="none" xmlns="http://www.w3.org/2000/svg">
<g id="person_add">
<mask id="mask0_86111_2164" style="mask-type:alpha" maskUnits="userSpaceOnUse" x="0" y="0" width="33" height="32">
<rect id="Bounding box" x="0.5" width="32" height="32" fill="#D9D9D9"/>
</mask>
<g mask="url(#mask0_86111_2164)">
<path id="person_add_2" d="M25.8291 18.6667C25.5132 18.6667 25.2497 18.5602 25.0386 18.3472C24.8275 18.1342 24.7219 17.8704 24.7219 17.5556V14.4444H21.6108C21.296 14.4444 21.0321 14.3376 20.8191 14.1239C20.6062 13.9101 20.4997 13.6453 20.4997 13.3294C20.4997 13.0135 20.6062 12.75 20.8191 12.5389C21.0321 12.3278 21.296 12.2222 21.6108 12.2222H24.7219V9.11109C24.7219 8.79629 24.8288 8.5324 25.0425 8.31942C25.2562 8.10647 25.521 7.99999 25.8369 7.99999C26.1528 7.99999 26.4163 8.10647 26.6274 8.31942C26.8386 8.5324 26.9441 8.79629 26.9441 9.11109V12.2222H30.0552C30.37 12.2222 30.6339 12.3291 30.8469 12.5428C31.0599 12.7565 31.1663 13.0213 31.1663 13.3372C31.1663 13.6531 31.0599 13.9166 30.8469 14.1278C30.6339 14.3389 30.37 14.4444 30.0552 14.4444H26.9441V17.5556C26.9441 17.8704 26.8373 18.1342 26.6235 18.3472C26.4098 18.5602 26.145 18.6667 25.8291 18.6667ZM12.4997 15.9778C11.033 15.9778 9.81449 15.4926 8.84411 14.5222C7.87375 13.5518 7.38858 12.3333 7.38858 10.8667C7.38858 9.39999 7.87375 8.18148 8.84411 7.21112C9.81449 6.24074 11.033 5.75555 12.4997 5.75555C13.9663 5.75555 15.1849 6.24074 16.1552 7.21112C17.1256 8.18148 17.6108 9.39999 17.6108 10.8667C17.6108 12.3333 17.1256 13.5518 16.1552 14.5222C15.1849 15.4926 13.9663 15.9778 12.4997 15.9778ZM2.94411 26.6667C2.62931 26.6667 2.36542 26.5602 2.15244 26.3472C1.93949 26.1342 1.83301 25.8704 1.83301 25.5556V23.3333C1.83301 22.563 2.03115 21.8611 2.42744 21.2278C2.82375 20.5945 3.36635 20.1185 4.05524 19.8C5.62562 19.0815 7.07998 18.5648 8.41831 18.25C9.75666 17.9352 11.1159 17.7778 12.4961 17.7778C13.8763 17.7778 15.2367 17.9352 16.5774 18.25C17.9182 18.5648 19.3663 19.0815 20.9219 19.8C21.6108 20.1333 22.1571 20.613 22.5608 21.2389C22.9645 21.8648 23.1663 22.563 23.1663 23.3333V25.5556C23.1663 25.8704 23.0599 26.1342 22.8469 26.3472C22.6339 26.5602 22.37 26.6667 22.0552 26.6667H2.94411ZM4.05521 24.4445H20.9441V23.3333C20.9441 23.0148 20.8645 22.7148 20.7052 22.4333C20.546 22.1518 20.3071 21.9407 19.9886 21.8C18.5515 21.0963 17.2626 20.6204 16.1219 20.3722C14.9812 20.1241 13.7737 20 12.4997 20C11.2256 20 10.0182 20.1278 8.87744 20.3833C7.73671 20.6389 6.44042 21.1111 4.98857 21.8C4.69966 21.9407 4.47187 22.1518 4.30521 22.4333C4.13854 22.7148 4.05521 23.0148 4.05521 23.3333V24.4445ZM12.4997 13.7556C13.3219 13.7556 14.0089 13.4796 14.5608 12.9278C15.1126 12.3759 15.3886 11.6889 15.3886 10.8667C15.3886 10.0444 15.1126 9.3574 14.5608 8.80555C14.0089 8.25369 13.3219 7.97775 12.4997 7.97775C11.6775 7.97775 10.9904 8.25369 10.4386 8.80555C9.88671 9.3574 9.61077 10.0444 9.61077 10.8667C9.61077 11.6889 9.88671 12.3759 10.4386 12.9278C10.9904 13.4796 11.6775 13.7556 12.4997 13.7556Z" fill="white"/>
</g>
</g>
</svg>
