<svg width="31" height="31" viewBox="0 0 31 31" fill="none" xmlns="http://www.w3.org/2000/svg">
<g id="Icons">
<path id="Vector" d="M26.2257 3.48291H5.77114H5.49841C4.39384 3.48291 3.49841 4.37864 3.49841 5.48321C3.49841 5.663 3.49841 5.79037 3.49841 5.82288V26.2774V26.4829C3.49841 27.5875 4.39414 28.4829 5.49871 28.4829C5.64219 28.4829 5.74243 28.4829 5.77113 28.4829H26.2257C26.2544 28.4829 26.3546 28.4829 26.4981 28.4829C27.6027 28.4829 28.4984 27.587 28.4984 26.4824C28.4984 26.3756 28.4984 26.3017 28.4984 26.2774V5.82285C28.4984 5.79035 28.4984 5.66299 28.4984 5.48321C28.4984 4.37864 27.6027 3.48291 26.4981 3.48291C26.3546 3.48291 26.2544 3.48291 26.2257 3.48291ZM18.2711 26.2774H5.77114V17.1865H18.2711V26.2774ZM18.2711 14.9138H5.77114V5.82288L18.2711 5.82285V14.9138ZM26.2257 26.2774H20.5439V5.82288H26.2257V26.2774Z" fill="#CDCDCD"/>
</g>
</svg>
